<svg id="Слой_1" data-name="Слой 1" xmlns="http://www.w3.org/2000/svg" viewBox="0 0 186 102"><title>Монтажная область 1</title><polygon points="90 0.5 90 5.1 81.2 5.1 81.2 20.3 74.7 20.3 74.7 0.5 90 0.5"/><path d="M102.4,0a10.78,10.78,0,0,1,4.6.9,9.75,9.75,0,0,1,3.2,2.3,9.16,9.16,0,0,1,1.9,3.3,12.09,12.09,0,0,1,.6,3.8,12.46,12.46,0,0,1-.8,4.5,9.55,9.55,0,0,1-2.2,3.3,7.93,7.93,0,0,1-3.3,2,11,11,0,0,1-4.1.7,10.88,10.88,0,0,1-4.2-.7,9,9,0,0,1-5.4-5.4,12.51,12.51,0,0,1-.7-4.5A10.84,10.84,0,0,1,92.8,6a8.92,8.92,0,0,1,2.1-3.2A9.33,9.33,0,0,1,98.2.7a10.88,10.88,0,0,1,4.2-.7m-.1,4.8a3.45,3.45,0,0,0-1.8.5,3.74,3.74,0,0,0-1.2,1.3,4.78,4.78,0,0,0-.6,1.8,12.25,12.25,0,0,0-.2,1.9,15,15,0,0,0,.2,2,4.78,4.78,0,0,0,.6,1.8,5.26,5.26,0,0,0,1.2,1.4,2.85,2.85,0,0,0,1.9.5,3.17,3.17,0,0,0,3-1.6,7.51,7.51,0,0,0,.7-1.8,15.16,15.16,0,0,0,.2-2.3,13.55,13.55,0,0,0-.2-2,5.09,5.09,0,0,0-.7-1.7,3.45,3.45,0,0,0-1.2-1.2,3.29,3.29,0,0,0-1.9-.6"/><path d="M134.4.5V15.6h1.7v5.1H114.5V15.6h1.6c.3-.7.6-1.3.9-2.1a15.54,15.54,0,0,0,.5-2.3c.1-.8.2-1.7.3-2.6a30.09,30.09,0,0,0,.1-3.1V.5ZM124,5.1V7.2a33.33,33.33,0,0,1-.3,4.6,8.13,8.13,0,0,1-1.3,3.7h5.5V5.1Z"/><polygon points="24.2 22.7 24.2 47.7 16 47.7 16 28.5 8.2 28.5 8.2 47.7 0 47.7 0 22.7 24.2 22.7"/><path d="M44.4,22.7l9,25.1H45.2l-1-3.3H36l-.9,3.3h-8l9-25.1ZM42.8,39.2l-2.6-9-2.5,9Z"/><path d="M66.1,22.7l4.4,15.6,4.4-15.6h9.9V47.8H77.4V40.1c0-1.4,0-2.8.1-4.2s.2-2.8.4-4.2h-.1L73.2,47.8H67.5L62.9,31.7H63c.1.6.1,1.2.2,1.8s.1,1.3.2,2,.1,1.4.1,2,.1,1.2.1,1.7v8.5H56.2v-25Z"/><polygon points="128.9 47.7 120.7 47.7 120.7 28.5 113.3 28.5 113.3 22.7 136.3 22.7 136.3 28.5 128.9 28.5 128.9 47.7"/><polygon points="164 22.7 164 47.7 156.1 47.7 156.1 39.8 156.5 33.4 147.5 47.7 139.8 47.7 139.8 22.7 147.7 22.7 147.7 30.6 147.2 37 156.3 22.7 164 22.7"/><polygon points="24.2 49.8 24.2 74.9 16.3 74.9 16.3 66.9 16.7 60.5 7.7 74.9 0 74.9 0 49.8 7.9 49.8 7.9 57.8 7.5 64.2 16.5 49.8 24.2 49.8"/><path d="M56.9,59.4a4.64,4.64,0,0,0-1.3-3,4.5,4.5,0,0,0-3.1-1.1,3.81,3.81,0,0,0-3.4,1.8,10,10,0,0,0-1.2,5.5,22.75,22.75,0,0,0,.2,2.6,8.08,8.08,0,0,0,.7,2.2,3.61,3.61,0,0,0,1.5,1.5,4.63,4.63,0,0,0,2.5.6,3.77,3.77,0,0,0,3-1.2,5.06,5.06,0,0,0,1.2-3h7.9a12.53,12.53,0,0,1-1.3,4.4A12,12,0,0,1,61.1,73a10.68,10.68,0,0,1-3.6,2.1,13.46,13.46,0,0,1-4.6.7,16.45,16.45,0,0,1-5.6-.9,12.91,12.91,0,0,1-4.2-2.6,11.1,11.1,0,0,1-2.6-4.2,15.86,15.86,0,0,1-.9-5.5,14.16,14.16,0,0,1,1-5.5A10.49,10.49,0,0,1,43.3,53a11.09,11.09,0,0,1,4-2.6,13.33,13.33,0,0,1,4.9-.9c3.8,0,6.8.9,8.9,2.7a11.26,11.26,0,0,1,3.7,7.5H56.9Z"/><path d="M92.8,49.8V74.9H84.6V55.6H78.7v7.1a26.48,26.48,0,0,1-.6,6.2,10.35,10.35,0,0,1-1.6,3.8,6,6,0,0,1-2.5,2,8.29,8.29,0,0,1-3.2.6,16.22,16.22,0,0,1-2.3-.1c-.6-.1-1.4-.2-2.2-.4V69a2.35,2.35,0,0,0,.8.2c.3,0,.6.1,1.1.1a3.59,3.59,0,0,0,1.1-.2,1.46,1.46,0,0,0,.8-.9,7.21,7.21,0,0,0,.5-2,30.09,30.09,0,0,0,.2-3.5V49.8Z"/><path d="M113,49.8l9,25.1h-8.2l-1-3.3h-8.2l-.9,3.3h-8l9-25.1Zm-1.7,16.5-2.6-9-2.5,9Z"/><path d="M124.8,49.8h12a26,26,0,0,1,4,.3,10,10,0,0,1,3.2,1,6.74,6.74,0,0,1,2.2,1.9,5.69,5.69,0,0,1,.8,3.1,4.84,4.84,0,0,1-.3,1.8,5.23,5.23,0,0,1-.7,1.5,4.26,4.26,0,0,1-1.1,1.2,4.7,4.7,0,0,1-1.2.9,5,5,0,0,1,3.1,2.1,6.63,6.63,0,0,1,1.1,3.6,7.24,7.24,0,0,1-.8,3.5,5.41,5.41,0,0,1-2.2,2.3,10.49,10.49,0,0,1-3.4,1.3,20,20,0,0,1-4.4.4H124.9V49.8Zm8.2,10h3.4a3.94,3.94,0,0,0,2-.5,2,2,0,0,0,.8-1.7,1.61,1.61,0,0,0-.3-1.1,1.34,1.34,0,0,0-.7-.6,3.59,3.59,0,0,0-1.1-.2H133Zm0,9.2h3.6a6.15,6.15,0,0,0,1.4-.1c.4-.1.8-.2,1.1-.3a1.58,1.58,0,0,0,.7-.7,2,2,0,0,0,.3-1.1,2.27,2.27,0,0,0-.3-1.3,2.18,2.18,0,0,0-.9-.7,3.19,3.19,0,0,0-1.4-.3c-.6,0-1.2-.1-1.8-.1H133Z"/><path d="M160,58.5h3.9a18.8,18.8,0,0,1,4.3.5,10.15,10.15,0,0,1,3.3,1.6,7.55,7.55,0,0,1,2.1,2.6,8,8,0,0,1,.7,3.6c0,2.7-.9,4.7-2.8,6a13.29,13.29,0,0,1-7.7,2h-12v-25H160ZM160,69h3a6.15,6.15,0,0,0,1.4-.1c.4-.1.8-.2,1.1-.3a1.58,1.58,0,0,0,.7-.7,2,2,0,0,0,.3-1.1,2.27,2.27,0,0,0-.3-1.3,2.18,2.18,0,0,0-.9-.7,3.19,3.19,0,0,0-1.4-.3c-.6,0-1.2-.1-1.8-.1H160Zm26,5.9h-8.2V49.8H186Z"/><path d="M119.8,96.1a7.78,7.78,0,0,1,.5-2.8,8.68,8.68,0,0,1,1.6-2.3,10.7,10.7,0,0,1,1.6-1.4c.6-.4,1.2-.8,1.7-1.2a16.29,16.29,0,0,1,1.7-1.1,17.09,17.09,0,0,0,1.4-1.1,10.59,10.59,0,0,0,1-1.2,3.26,3.26,0,0,0,.4-1.4,2.35,2.35,0,0,0-.2-.8,2.65,2.65,0,0,0-.5-.6,1.61,1.61,0,0,0-.7-.4,2.2,2.2,0,0,0-.8-.1,2.77,2.77,0,0,0-1.3.3,3,3,0,0,0-.8.8,3.58,3.58,0,0,0-.4,1.1,5.28,5.28,0,0,0-.1,1.3h-4.8a10.62,10.62,0,0,1,.5-3.4,7.63,7.63,0,0,1,1.5-2.3,7,7,0,0,1,2.4-1.3,10.38,10.38,0,0,1,3.2-.4,12.41,12.41,0,0,1,2.7.3,8,8,0,0,1,2.3,1,5.48,5.48,0,0,1,1.6,1.8,5.4,5.4,0,0,1,.6,2.7,4.64,4.64,0,0,1-.4,2.1,5.72,5.72,0,0,1-1.1,1.6,10.1,10.1,0,0,1-1.6,1.3c-.6.4-1.2.7-1.8,1.1s-1.2.7-1.9,1a9.91,9.91,0,0,0-1.7,1.1h8.4v4.4l-15-.1Z"/><path d="M136.1,86.9a12.46,12.46,0,0,1,.6-4.2,7,7,0,0,1,1.7-2.8,6.69,6.69,0,0,1,2.5-1.6,9.43,9.43,0,0,1,3-.5,8.29,8.29,0,0,1,3.2.6,7.39,7.39,0,0,1,2.5,1.7,8.54,8.54,0,0,1,1.6,2.8,12,12,0,0,1,.6,4,15,15,0,0,1-.4,3.7,9.65,9.65,0,0,1-1.3,3.1,6.11,6.11,0,0,1-2.4,2.1,9,9,0,0,1-7.4,0,6.11,6.11,0,0,1-2.4-2.1,7.85,7.85,0,0,1-1.3-3.1,11,11,0,0,1-.5-3.7m7.9,5.6a1.59,1.59,0,0,0,1.2-.4A3.13,3.13,0,0,0,146,91a7.09,7.09,0,0,0,.4-1.7,14.77,14.77,0,0,0,.1-2.1,9.15,9.15,0,0,0-.1-1.6,5.66,5.66,0,0,0-.3-1.8,3.22,3.22,0,0,0-.8-1.4,1.93,1.93,0,0,0-2.8,0,3.48,3.48,0,0,0-.7,1.5,11.27,11.27,0,0,0-.3,1.8c0,.6-.1,1.2-.1,1.6a15.48,15.48,0,0,0,.1,2.2,7.09,7.09,0,0,0,.4,1.7,2.26,2.26,0,0,0,.8,1.1,3.92,3.92,0,0,0,1.3.2"/><path d="M154,96.1a7.78,7.78,0,0,1,.5-2.8,8.68,8.68,0,0,1,1.6-2.3,10.7,10.7,0,0,1,1.6-1.4c.6-.4,1.2-.8,1.7-1.2a16.29,16.29,0,0,1,1.7-1.1,17.09,17.09,0,0,0,1.4-1.1,10.59,10.59,0,0,0,1-1.2,3.26,3.26,0,0,0,.4-1.4,2.35,2.35,0,0,0-.2-.8,2.65,2.65,0,0,0-.5-.6,1.61,1.61,0,0,0-.7-.4,2.2,2.2,0,0,0-.8-.1,2.77,2.77,0,0,0-1.3.3,3,3,0,0,0-.8.8,3.58,3.58,0,0,0-.4,1.1,5.28,5.28,0,0,0-.1,1.3h-4.8a10.62,10.62,0,0,1,.5-3.4,7.63,7.63,0,0,1,1.5-2.3,7,7,0,0,1,2.4-1.3,10.38,10.38,0,0,1,3.2-.4,12.41,12.41,0,0,1,2.7.3,8,8,0,0,1,2.3,1,5.48,5.48,0,0,1,1.6,1.8,5.4,5.4,0,0,1,.6,2.7,4.64,4.64,0,0,1-.4,2.1,5.72,5.72,0,0,1-1.1,1.6,10.1,10.1,0,0,1-1.6,1.3c-.6.4-1.2.7-1.8,1.1s-1.2.7-1.9,1a9.91,9.91,0,0,0-1.7,1.1H169v4.4l-15-.1Z"/><path d="M170.3,86.9a12.46,12.46,0,0,1,.6-4.2,7,7,0,0,1,1.7-2.8,6.69,6.69,0,0,1,2.5-1.6,9.43,9.43,0,0,1,3-.5,8.29,8.29,0,0,1,3.2.6,7.39,7.39,0,0,1,2.5,1.7,8.54,8.54,0,0,1,1.6,2.8,12,12,0,0,1,.6,4,15,15,0,0,1-.4,3.7,9.65,9.65,0,0,1-1.3,3.1,6.11,6.11,0,0,1-2.4,2.1,9,9,0,0,1-7.4,0,6.11,6.11,0,0,1-2.4-2.1,7.85,7.85,0,0,1-1.3-3.1,14.38,14.38,0,0,1-.5-3.7m7.9,5.6a1.59,1.59,0,0,0,1.2-.4,3.13,3.13,0,0,0,.8-1.1,7.09,7.09,0,0,0,.4-1.7,14.08,14.08,0,0,0,.1-2.1,9.15,9.15,0,0,0-.1-1.6,5.66,5.66,0,0,0-.3-1.8,3.22,3.22,0,0,0-.8-1.4,1.93,1.93,0,0,0-2.8,0,3.48,3.48,0,0,0-.7,1.5,11.27,11.27,0,0,0-.3,1.8c0,.6-.1,1.2-.1,1.6a15.48,15.48,0,0,0,.1,2.2,7.09,7.09,0,0,0,.4,1.7,2.26,2.26,0,0,0,.8,1.1,4.44,4.44,0,0,0,1.3.2"/><path d="M100.1,39.1l-3.8,8.7H87.5L92.6,38a4.52,4.52,0,0,1-1.7-1.1,12.17,12.17,0,0,1-1.5-1.7,10,10,0,0,1-1-2.1,5.7,5.7,0,0,1-.4-2.2,7.94,7.94,0,0,1,.6-3.2,6.67,6.67,0,0,1,1.9-2.5,10.15,10.15,0,0,1,3.3-1.6,16.52,16.52,0,0,1,4.8-.6h12V47.9h-8.2V39.2h-2.3Zm2.4-10.5H99.1a4.27,4.27,0,0,0-2.4.6,2.26,2.26,0,0,0-.9,2,1.73,1.73,0,0,0,1,1.8,7.2,7.2,0,0,0,2.9.5h2.8Z"/></svg>